<svg xmlns="http://www.w3.org/2000/svg" xmlns:xlink="http://www.w3.org/1999/xlink" viewBox="0 0 204 58.829" width="204px" height="58.83px"><defs><style>.a{fill:#fff;}.a,.b,.c,.e,.g,.h,.i,.j,.k{fill-rule:evenodd;}.b{fill:url(#a);}.c{fill:url(#b);}.d{fill:url(#c);}.e{fill:url(#d);}.f{fill:url(#e);}.g{fill:url(#f);}.h{fill:url(#g);}.i{fill:url(#h);}.j{fill:url(#i);}.k{fill:url(#j);}</style><radialGradient id="a" cx="133.966" cy="31.272" r="8.502" gradientUnits="userSpaceOnUse"><stop offset="0" stop-color="#fcbc86"/><stop offset="0.34" stop-color="#f58220"/><stop offset="1" stop-color="#f58220"/></radialGradient><radialGradient id="b" cx="145.682" cy="17.711" r="10.933" xlink:href="#a"/><radialGradient id="c" cx="7.909" cy="11.687" r="14.104" xlink:href="#a"/><radialGradient id="d" cx="191.983" cy="21.943" r="18.909" xlink:href="#a"/><radialGradient id="e" cx="15.013" cy="22.175" r="26.824" xlink:href="#a"/><linearGradient id="f" x1="0.501" y1="1" x2="0.501" y2="0.003" gradientUnits="objectBoundingBox"><stop offset="0" stop-color="#f7975b"/><stop offset="0.38" stop-color="#f7975b"/><stop offset="0.95" stop-color="#fff8f3"/><stop offset="1" stop-color="#fff"/></linearGradient><linearGradient id="g" x1="0.5" y1="0.998" x2="0.5" y2="0.001" xlink:href="#f"/><linearGradient id="h" x1="0.503" y1="1.003" x2="0.503" y2="0.005" xlink:href="#f"/><linearGradient id="i" x1="0.498" y1="1.003" x2="0.498" y2="0" xlink:href="#f"/><linearGradient id="j" x1="0.505" y1="0.99" x2="0.505" y2="0.003" xlink:href="#f"/></defs><g transform="translate(-11793.063 5878)"><path class="a" d="M0,30H9.194V51.43H29.726v7.328H0V30Zm43.966,7.881c-4.563,0-7.742.277-9.609.83a5.989,5.989,0,0,0-3.94,3.042,7.08,7.08,0,0,0-.76,2.42,26.8,26.8,0,0,0-.207,3.871,27.859,27.859,0,0,0,.484,6.36A5.992,5.992,0,0,0,31.8,57.444,7.937,7.937,0,0,0,35.74,59.1a55.639,55.639,0,0,0,8.157.415A48.146,48.146,0,0,0,53.16,58.9a5.78,5.78,0,0,0,4.424-3.664,9.287,9.287,0,0,0,.553-2.558,35.2,35.2,0,0,0,.138-4.286,21.384,21.384,0,0,0-.553-5.6,5.032,5.032,0,0,0-2.074-2.834A9.734,9.734,0,0,0,51.639,38.5a30.345,30.345,0,0,0-7.673-.622Zm.069,5.738a13.942,13.942,0,0,1,4.977.622A2.58,2.58,0,0,1,50.4,45.554a7.747,7.747,0,0,1,.415,2.973c0,2.143-.415,3.526-1.175,4.148-.83.622-2.7.9-5.53.9-2.558,0-4.286-.207-5.254-.691a2.7,2.7,0,0,1-1.313-1.313,8.847,8.847,0,0,1-.346-2.834,8.409,8.409,0,0,1,.415-3.042,2.394,2.394,0,0,1,1.383-1.452c.83-.415,2.489-.622,5.046-.622Zm36.984-5.254h7.189v18.8a32.182,32.182,0,0,1-.138,3.456,10.907,10.907,0,0,1-.553,2.143,6.309,6.309,0,0,1-1.659,2.558,6.8,6.8,0,0,1-2.7,1.659A34.712,34.712,0,0,1,73.139,68.09a37.742,37.742,0,0,1-7.259-.484,8.069,8.069,0,0,1-3.871-1.8A7.529,7.529,0,0,1,59.8,60.624h7.812l.069.207a2.031,2.031,0,0,0,1.452,1.521,13.911,13.911,0,0,0,4.148.415,22.162,22.162,0,0,0,4.355-.277,3.682,3.682,0,0,0,2-1.037,2.912,2.912,0,0,0,.691-1.383,14.4,14.4,0,0,0,.138-2.9v-1.8H80.19a6.058,6.058,0,0,1-2.9,2.558,18.047,18.047,0,0,1-5.53.622,35.622,35.622,0,0,1-6.152-.415,9.168,9.168,0,0,1-3.526-1.313,5.747,5.747,0,0,1-2.212-3.042,20.37,20.37,0,0,1-.622-5.876c0-3.18.415-5.392,1.175-6.636a6.16,6.16,0,0,1,3.664-2.7,29.353,29.353,0,0,1,7.673-.76,18.987,18.987,0,0,1,5.738.622,6.145,6.145,0,0,1,2.973,2.558h.346V38.365Zm-6.982,5.254c-2.834,0-4.77.277-5.669.76a2.979,2.979,0,0,0-1.106,1.313,7.52,7.52,0,0,0-.346,2.558,6.957,6.957,0,0,0,.415,2.834,2.568,2.568,0,0,0,1.59,1.313,17.283,17.283,0,0,0,4.632.484c2.9,0,4.839-.277,5.669-.9a2.337,2.337,0,0,0,.9-1.244,9.649,9.649,0,0,0,.277-2.42,7.989,7.989,0,0,0-.346-2.627,2.3,2.3,0,0,0-1.175-1.244c-.76-.622-2.42-.83-4.839-.83Zm16.107-5.254h7.6V58.827h-7.6V38.365ZM119.524,50.6h7.812a15.5,15.5,0,0,1-.553,3.871,6.225,6.225,0,0,1-1.383,2.35,7.646,7.646,0,0,1-3.94,2,48.49,48.49,0,0,1-8.5.484,43.254,43.254,0,0,1-7.051-.415,9.847,9.847,0,0,1-3.871-1.452,5.827,5.827,0,0,1-2.074-2.973,22.016,22.016,0,0,1-.553-6.014,22.532,22.532,0,0,1,.553-5.6,5.792,5.792,0,0,1,1.866-2.973,8.585,8.585,0,0,1,3.94-1.59,50.176,50.176,0,0,1,7.6-.415,42.823,42.823,0,0,1,7.673.484,8.464,8.464,0,0,1,4.079,1.659,5.418,5.418,0,0,1,1.728,2.42,15.267,15.267,0,0,1,.622,4.286h-7.812a2.784,2.784,0,0,0-1.521-2.42,12.154,12.154,0,0,0-4.7-.691,12.639,12.639,0,0,0-4.77.622,2.291,2.291,0,0,0-1.175,1.452,10.76,10.76,0,0,0-.346,3.042,7.581,7.581,0,0,0,.415,2.9,2.444,2.444,0,0,0,1.313,1.313,12.708,12.708,0,0,0,4.7.622,11.577,11.577,0,0,0,4.632-.622A3.155,3.155,0,0,0,119.524,50.6Z" transform="translate(11793.063 -5887.261)"/><path class="a" d="M230.6,41.453h7.189v3.042h.415c1.106-2.42,3.871-3.595,8.3-3.595a15.056,15.056,0,0,1,5.876.968,7.68,7.68,0,0,1,3.387,3.249,5.752,5.752,0,0,1,2.973-3.249,13.334,13.334,0,0,1,5.807-.968,18,18,0,0,1,5.185.622,8.084,8.084,0,0,1,3.318,2,6.351,6.351,0,0,1,1.728,3.111,27.285,27.285,0,0,1,.415,5.669v9.54h-7.6V52.375a27.311,27.311,0,0,0-.138-3.111,2.62,2.62,0,0,0-.691-1.383c-.76-.76-2.212-1.106-4.286-1.106-2.212,0-3.733.415-4.563,1.313a3.936,3.936,0,0,0-.9,1.866,20.923,20.923,0,0,0-.277,3.595v8.434h-7.6V52.375a27.869,27.869,0,0,0-.138-3.18,2.214,2.214,0,0,0-.691-1.313c-.691-.76-2.143-1.106-4.217-1.106-2.281,0-3.871.415-4.7,1.244a3.387,3.387,0,0,0-.9,1.866,21.226,21.226,0,0,0-.276,3.664v8.434h-7.6V41.453Z" transform="translate(11721.874 -5890.626)"/><path class="b" d="M133.97,33.74a4.77,4.77,0,1,0-4.77-4.77A4.779,4.779,0,0,0,133.97,33.74Z" transform="translate(11753.178 -5885.471)"/><path class="c" d="M145.652,20.9a6.152,6.152,0,1,0-6.152-6.152A6.166,6.166,0,0,0,145.652,20.9Z" transform="translate(11749.998 -5880.655)"/><circle class="d" cx="7.881" cy="7.881" r="7.881" transform="translate(11903.186 -5878)"/><path class="e" d="M191.977,27.454A10.577,10.577,0,1,0,181.4,16.877,10.621,10.621,0,0,0,191.977,27.454Z" transform="translate(11737.063 -5879.945)"/><circle class="f" cx="15.001" cy="15.001" r="15.001" transform="translate(11920.951 -5855.118)"/><path class="g" d="M201.63,51.31c-6.152,0-11.13-1.106-11.13-5.807s4.977-8.5,11.13-8.5,11.13,3.8,11.13,8.5S207.782,51.31,201.63,51.31Z" transform="translate(11734.254 -5889.422)"/><path class="h" d="M191.6,17.54c-4.079,0-7.4-.76-7.4-3.871S187.518,8,191.6,8s7.4,2.558,7.4,5.669S195.675,17.54,191.6,17.54Z" transform="translate(11736.198 -5880.47)"/><path class="i" d="M167.054,7.906c-2.9,0-5.254-.553-5.254-2.7C161.8,3,164.15,1.2,167.054,1.2s5.254,1.8,5.254,4.009S169.957,7.906,167.054,7.906Z" transform="translate(11743.113 -5878.371)"/><path class="j" d="M144.395,14.963c-2,0-3.595-.346-3.595-1.866s1.59-2.7,3.595-2.7,3.595,1.244,3.595,2.7C147.92,14.617,146.33,14.963,144.395,14.963Z" transform="translate(11749.597 -5881.21)"/><path class="k" d="M133.427,29.687c-1.452,0-2.627-.277-2.627-1.383s1.175-2,2.627-2,2.627.9,2.627,2S134.879,29.687,133.427,29.687Z" transform="translate(11752.684 -5886.119)"/></g></svg>